<svg xmlns="http://www.w3.org/2000/svg" width="96" height="96" fill="none" viewBox="0 0 96 96" id="exit">
  <path fill="url(#paint0_linear_714_15073)" fill-rule="evenodd" d="M18 7.5C13.3056 7.5 9.5 11.3056 9.5 16V18.8864V61V74.2635C9.5 77.7313 11.6067 80.8514 14.8232 82.1475L31.8232 88.9976C37.4094 91.2485 43.5 87.1362 43.5 81.1136V80.45C43.6616 80.4828 43.8288 80.5 44 80.5H57C61.6944 80.5 65.5 76.6944 65.5 72V56.5C65.5 55.1193 64.3807 54 63 54C61.6193 54 60.5 55.1193 60.5 56.5V72C60.5 73.933 58.933 75.5 57 75.5H44C43.8288 75.5 43.6616 75.5172 43.5 75.55V25.7365C43.5 22.2687 41.3933 19.1486 38.1768 17.8525L24.8934 12.5H57C58.933 12.5 60.5 14.067 60.5 16V33C60.5 34.3807 61.6193 35.5 63 35.5C64.3807 35.5 65.5 34.3807 65.5 33V16C65.5 11.3056 61.6944 7.5 57 7.5H18ZM14.5 18.8864V61V74.2635C14.5 75.6914 15.3674 76.9762 16.6919 77.5099L33.6919 84.3599C35.9921 85.2868 38.5 83.5935 38.5 81.1136V25.7365C38.5 24.3086 37.6326 23.0238 36.3081 22.4901L19.3081 15.6401C17.0079 14.7132 14.5 16.4065 14.5 18.8864ZM77.2322 55.7678C78.2085 56.7441 79.7915 56.7441 80.7678 55.7678L86.5858 49.9497C89.3195 47.2161 89.3195 42.7839 86.5858 40.0503L80.7678 34.2322C79.7915 33.2559 78.2085 33.2559 77.2322 34.2322C76.2559 35.2085 76.2559 36.7915 77.2322 37.7678L83.0503 43.5858C83.8313 44.3668 83.8313 45.6332 83.0503 46.4142L77.2322 52.2322C76.2559 53.2085 76.2559 54.7915 77.2322 55.7678ZM52 42.5C50.6193 42.5 49.5 43.6193 49.5 45C49.5 46.3807 50.6193 47.5 52 47.5H76C77.3807 47.5 78.5 46.3807 78.5 45C78.5 43.6193 77.3807 42.5 76 42.5H52Z" clip-rule="evenodd"></path>
  <defs>
    <linearGradient id="paint0_linear_714_15073" x1="49.068" x2="49.068" y1="7.5" y2="89.622" gradientUnits="userSpaceOnUse">
      <stop stop-color="#041034"></stop>
      <stop offset="1" stop-color="#516EC4"></stop>
    </linearGradient>
  </defs>
</svg>
