<svg xmlns="http://www.w3.org/2000/svg" viewBox="0 0 64 64" id="History">
  <rect width="12" height="6" x="26" y="12" rx="1" fill="#1b4965" class="color000000 svgShape"></rect>
  <path d="M18,14a2.006,2.006,0,0,0-2,2V52a2.006,2.006,0,0,0,2,2H46a2.006,2.006,0,0,0,2-2V16a2.006,2.006,0,0,0-2-2H40v3a3,3,0,0,1-3,3H27a3,3,0,0,1-3-3V14ZM43,46H21a1,1,0,0,1,0-2H43a1,1,0,0,1,0,2Zm0-10H21a1,1,0,0,1,0-2H43a1,1,0,0,1,0,2Zm0-12a1,1,0,0,1,0,2H21a1,1,0,0,1,0-2Z" fill="#1b4965" class="color000000 svgShape"></path>
</svg>
