<svg xmlns="http://www.w3.org/2000/svg" viewBox="0 0 32 32" id="notification">
  <path fill="#1b4965" d="m17.5,10.02H4c-.55,0-1-.45-1-1s.45-1,1-1h13.5c.55,0,1,.45,1,1s-.45,1-1,1Z" class="color34519c svgShape"></path>
  <path fill="#1b4965" d="m26,26.01H6c-1.65,0-3-1.35-3-3v-13.99c0-.55.45-1,1-1h13.5c.55,0,1,.45,1,1s-.45,1-1,1H5v12.99c0,.55.45,1,1,1h20c.55,0,1-.45,1-1v-8.87c0-.55.45-1,1-1s1,.45,1,1v8.87c0,1.65-1.35,3-3,3Z" class="color34519c svgShape"></path>
  <path fill="#3388bc" d="M3.91 8.04c-.07 0-.14.02-.2.04.07-.02.13-.03.2-.04zM3.24 8.4s-.05.04-.07.07c-.02.03-.02.06-.03.08.03-.05.06-.1.1-.15zM3.54 8.15c-.06.03-.11.07-.16.11.05-.04.1-.08.16-.11zM3.06 8.73c-.02.07-.03.13-.04.2 0-.07.02-.13.04-.2zM24.01 13.22c2.33 0 4.22-1.89 4.22-4.22s-1.89-4.22-4.22-4.22-4.22 1.89-4.22 4.22 1.89 4.22 4.22 4.22zm0-6.44c1.22 0 2.22 1 2.22 2.22s-1 2.22-2.22 2.22-2.22-1-2.22-2.22 1-2.22 2.22-2.22zM15.44 15.45l-8.14-5.43h-2.3v.87l9.33 6.22c.51.34 1.09.51 1.67.51s1.16-.17 1.66-.51l3.05-2.03c.46-.31.58-.93.28-1.39s-.93-.58-1.39-.28l-3.05 2.03c-.33.22-.78.22-1.11 0z" class="color8076dc svgShape"></path>
</svg>
